<svg xmlns="http://www.w3.org/2000/svg" xmlns:xlink="http://www.w3.org/1999/xlink" width="83" zoomAndPan="magnify" viewBox="0 0 62.25 34.499999" height="46" preserveAspectRatio="xMidYMid meet" version="1.0"><defs><clipPath id="d455dceb23"><path d="M 0.0742188 0 L 60 0 L 60 34 L 0.0742188 34 Z M 0.0742188 0 " clip-rule="nonzero"/></clipPath></defs><g clip-path="url(#d455dceb23)"><path fill="#bb5ab8" d="M 20.644531 11.308594 C 20.617188 8.269531 21.628906 6.214844 23.683594 5.121094 L 25.433594 5.96875 L 30.746094 6.078125 L 31.925781 5.449219 L 32.089844 6.515625 C 27.269531 7.335938 23.464844 8.925781 20.644531 11.308594 Z M 47.667969 9.554688 C 55.46875 12.238281 55.222656 25.214844 47.777344 28.28125 C 46.515625 27.734375 45.613281 26.394531 45.121094 24.257812 C 49.363281 24.421875 51.417969 20.175781 50.351562 16.480469 C 49.71875 14.320312 48.105469 13.25 45.53125 13.195312 C 46.023438 11.199219 46.761719 9.992188 47.667969 9.554688 Z M 49.117188 7.554688 C 47.449219 7.832031 46.105469 9.417969 45.285156 10.785156 C 43.914062 13.113281 43.285156 15.988281 43.230469 18.644531 C 43.148438 21.21875 43.613281 24.039062 44.820312 26.339844 C 45.53125 27.707031 46.734375 29.265625 48.324219 29.625 C 48.515625 29.652344 48.761719 29.679688 48.980469 29.679688 C 49.144531 29.679688 49.28125 29.679688 49.445312 29.652344 C 51.117188 29.378906 52.484375 27.789062 53.308594 26.421875 C 54.675781 24.09375 55.277344 21.21875 55.359375 18.5625 C 55.414062 15.988281 54.949219 13.167969 53.773438 10.871094 C 53.058594 9.5 51.855469 7.941406 50.269531 7.582031 C 50.046875 7.554688 49.828125 7.527344 49.609375 7.527344 C 49.445312 7.527344 49.28125 7.527344 49.117188 7.554688 Z M 29.078125 16.617188 C 29.980469 11.308594 32.417969 7.691406 35.921875 5.996094 L 32.417969 6.515625 C 32.144531 4.050781 31.238281 2.136719 29.734375 0.765625 L 20.179688 0 C 17.988281 0.464844 16.402344 1.808594 15.414062 4.023438 L 9.527344 4.488281 C 12.046875 4.542969 13.636719 5.09375 14.265625 6.105469 C 15.140625 9.007812 12.675781 10.375 6.929688 10.238281 C 6.050781 10.265625 4.492188 10.703125 2.273438 11.527344 C 2.136719 12.074219 1.507812 12.785156 0.410156 13.6875 C 0.136719 13.824219 0.164062 14.347656 0.523438 15.222656 C 3.121094 13.742188 5.804688 12.8125 8.542969 12.402344 L 16.019531 12.730469 C 18.261719 14.757812 18.398438 16.726562 16.402344 18.644531 C 18.617188 20.453125 18.589844 22.285156 16.292969 24.148438 C 18.289062 25.515625 18.261719 27.351562 16.265625 29.597656 C 18.097656 29.625 19.496094 29.347656 20.453125 28.746094 C 19.414062 24.585938 19.660156 21.847656 21.164062 20.507812 L 20.261719 18.097656 C 20.316406 15.660156 21.628906 14.949219 24.203125 15.933594 C 24.558594 16.863281 25.820312 19.191406 27.953125 22.859375 C 27.707031 21.765625 27.625 20.316406 27.734375 18.507812 C 29.160156 17.054688 30.582031 17.167969 31.953125 18.863281 C 33.621094 23.355469 35.703125 26.558594 38.195312 28.445312 C 39.535156 30.828125 41.863281 32.085938 45.148438 32.140625 C 47.804688 33.921875 50.570312 33.320312 52.867188 31.648438 C 60.261719 26.308594 61.136719 12.347656 54.949219 6.132812 C 52.976562 4.132812 50.542969 3.503906 47.722656 4.242188 L 43.339844 4.902344 C 37.34375 8.40625 35.046875 14.484375 36.90625 24.722656 C 36.578125 24.558594 35.867188 23.628906 35.511719 22.941406 C 33.867188 14.976562 35.785156 9.0625 41.234375 5.203125 L 37.867188 5.722656 C 33.457031 8.570312 31.074219 12.238281 30.691406 16.753906 C 30.144531 16.589844 29.597656 16.5625 29.078125 16.617188 Z M 41.042969 18.589844 C 41.234375 11.28125 45.066406 5.339844 49.609375 5.339844 C 54.15625 5.339844 57.714844 11.28125 57.523438 18.589844 C 57.359375 25.925781 53.527344 31.867188 48.980469 31.867188 C 44.410156 31.867188 40.875 25.925781 41.042969 18.589844 Z M 41.042969 18.589844 " fill-opacity="1" fill-rule="evenodd"/></g></svg>